<svg width="17" height="16" viewBox="0 0 17 16" fill="none" xmlns="http://www.w3.org/2000/svg">
<g clip-path="url(#clip0_6512_2664)">
<path d="M9.8004 11.7778C9.43222 11.7778 9.13373 12.0763 9.13373 12.4445C9.13373 12.8126 9.43222 13.1111 9.8004 13.1111V11.7778ZM15.1337 13.1111C15.5019 13.1111 15.8004 12.8126 15.8004 12.4445C15.8004 12.0763 15.5019 11.7778 15.1337 11.7778V13.1111ZM13.1337 9.77778C13.1337 9.40961 12.8352 9.11112 12.4671 9.11112C12.0989 9.11112 11.8004 9.40961 11.8004 9.77778H13.1337ZM11.8004 15.1111C11.8004 15.4793 12.0989 15.7778 12.4671 15.7778C12.8352 15.7778 13.1337 15.4793 13.1337 15.1111H11.8004ZM9.8004 13.1111H12.4671V11.7778H9.8004V13.1111ZM15.1337 11.7778H12.4671V13.1111H15.1337V11.7778ZM13.1337 12.4445V9.77778H11.8004V12.4445H13.1337ZM11.8004 12.4445V15.1111H13.1337V12.4445H11.8004ZM1.58529 5.6889V1.42223H0.251953V5.6889H1.58529ZM1.58529 1.42223C1.58529 1.45759 1.57124 1.49151 1.54624 1.51651L0.603425 0.573701C0.378382 0.798745 0.251953 1.10397 0.251953 1.42223H1.58529ZM1.54624 1.51651C1.52123 1.54152 1.48731 1.55556 1.45195 1.55556V0.222229C1.1337 0.222229 0.828469 0.348657 0.603425 0.573701L1.54624 1.51651ZM1.45195 1.55556H5.71862V0.222229H1.45195V1.55556ZM5.71862 1.55556C5.68326 1.55556 5.64935 1.54152 5.62434 1.51651L6.56714 0.573701C6.3421 0.348657 6.03688 0.222229 5.71862 0.222229V1.55556ZM5.62434 1.51651C5.59933 1.4915 5.58529 1.45759 5.58529 1.42223H6.91862C6.91862 1.10397 6.79219 0.798745 6.56714 0.573701L5.62434 1.51651ZM5.58529 1.42223V5.6889H6.91862V1.42223H5.58529ZM5.58529 5.6889C5.58529 5.65354 5.59933 5.61962 5.62434 5.59461L6.56714 6.53742C6.79219 6.31238 6.91862 6.00715 6.91862 5.6889H5.58529ZM5.62434 5.59461C5.64935 5.56961 5.68326 5.55556 5.71862 5.55556V6.8889C6.03688 6.8889 6.3421 6.76247 6.56714 6.53742L5.62434 5.59461ZM5.71862 5.55556H1.45195V6.8889H5.71862V5.55556ZM1.45195 5.55556C1.48731 5.55556 1.52122 5.56961 1.54624 5.59461L0.603425 6.53742C0.82847 6.76247 1.1337 6.8889 1.45195 6.8889V5.55556ZM1.54624 5.59461C1.57124 5.61962 1.58529 5.65354 1.58529 5.6889H0.251953C0.251953 6.00715 0.378381 6.31238 0.603425 6.53742L1.54624 5.59461ZM1.58529 14.5778V10.3111H0.251953V14.5778H1.58529ZM1.58529 10.3111C1.58529 10.3465 1.57124 10.3804 1.54624 10.4054L0.603425 9.46258C0.378381 9.68765 0.251953 9.9929 0.251953 10.3111H1.58529ZM1.54624 10.4054C1.52122 10.4304 1.48731 10.4445 1.45195 10.4445V9.11112C1.1337 9.11112 0.82847 9.23752 0.603425 9.46258L1.54624 10.4054ZM1.45195 10.4445H5.71862V9.11112H1.45195V10.4445ZM5.71862 10.4445C5.68326 10.4445 5.64935 10.4304 5.62434 10.4054L6.56714 9.46258C6.3421 9.23752 6.03688 9.11112 5.71862 9.11112V10.4445ZM5.62434 10.4054C5.59933 10.3804 5.58529 10.3465 5.58529 10.3111H6.91862C6.91862 9.9929 6.79219 9.68765 6.56714 9.46258L5.62434 10.4054ZM5.58529 10.3111V14.5778H6.91862V10.3111H5.58529ZM5.58529 14.5778C5.58529 14.5424 5.59933 14.5085 5.62434 14.4835L6.56714 15.4263C6.79219 15.2013 6.91862 14.896 6.91862 14.5778H5.58529ZM5.62434 14.4835C5.64935 14.4585 5.68326 14.4445 5.71862 14.4445V15.7778C6.03688 15.7778 6.3421 15.6514 6.56714 15.4263L5.62434 14.4835ZM5.71862 14.4445H1.45195V15.7778H5.71862V14.4445ZM1.45195 14.4445C1.48731 14.4445 1.52122 14.4585 1.54624 14.4835L0.603425 15.4263C0.82847 15.6514 1.1337 15.7778 1.45195 15.7778V14.4445ZM1.54624 14.4835C1.57124 14.5085 1.58529 14.5424 1.58529 14.5778H0.251953C0.251953 14.896 0.378381 15.2013 0.603425 15.4263L1.54624 14.4835ZM10.4742 5.6889V1.42223H9.14084V5.6889H10.4742ZM10.4742 1.42223C10.4742 1.45759 10.4601 1.4915 10.4352 1.51651L9.49231 0.573701C9.26724 0.798745 9.14084 1.10397 9.14084 1.42223H10.4742ZM10.4352 1.51651C10.4101 1.54152 10.3762 1.55556 10.3408 1.55556V0.222229C10.0226 0.222229 9.71738 0.348657 9.49231 0.573701L10.4352 1.51651ZM10.3408 1.55556H14.6075V0.222229H10.3408V1.55556ZM14.6075 1.55556C14.5721 1.55556 14.5383 1.54152 14.5132 1.51651L15.456 0.573701C15.231 0.348657 14.9257 0.222229 14.6075 0.222229V1.55556ZM14.5132 1.51651C14.4882 1.4915 14.4742 1.45759 14.4742 1.42223H15.8075C15.8075 1.10397 15.6811 0.798745 15.456 0.573701L14.5132 1.51651ZM14.4742 1.42223V5.6889H15.8075V1.42223H14.4742ZM14.4742 5.6889C14.4742 5.65354 14.4882 5.61962 14.5132 5.59461L15.456 6.53742C15.6811 6.31238 15.8075 6.00715 15.8075 5.6889H14.4742ZM14.5132 5.59461C14.5383 5.56961 14.5721 5.55556 14.6075 5.55556V6.8889C14.9257 6.8889 15.231 6.76247 15.456 6.53742L14.5132 5.59461ZM14.6075 5.55556H10.3408V6.8889H14.6075V5.55556ZM10.3408 5.55556C10.3762 5.55556 10.4101 5.56961 10.4352 5.59461L9.49231 6.53742C9.71738 6.76247 10.0226 6.8889 10.3408 6.8889V5.55556ZM10.4352 5.59461C10.4601 5.61962 10.4742 5.65354 10.4742 5.6889H9.14084C9.14084 6.00715 9.26724 6.31238 9.49231 6.53742L10.4352 5.59461Z" fill="#5751E1"/>
</g>
<defs>
<clipPath id="clip0_6512_2664">
<rect width="16" height="16" fill="white" transform="translate(0.0292969)"/>
</clipPath>
</defs>
</svg>
