<svg width="36" height="36" viewBox="0 0 36 36" fill="none" xmlns="http://www.w3.org/2000/svg">
<g clip-path="url(#clip0_6512_2721)">
<path d="M34.9167 0.280029H1.08333C0.761187 0.280029 0.5 0.546167 0.5 0.874419V24.65C0.5 24.9783 0.761187 25.2444 1.08333 25.2444H11.6166C11.6341 25.4423 11.6627 25.6373 11.6971 25.8305L8.4975 29.716C8.29027 29.9673 8.32228 30.3423 8.56896 30.5534C8.63845 30.6129 8.7207 30.6551 8.809 30.6765L12.3312 31.5336L13.7714 34.9217C13.8995 35.2229 14.2429 35.3614 14.5385 35.2309C14.6218 35.1942 14.6954 35.1382 14.7537 35.0673L17.9481 31.1883C17.9656 31.1883 17.9825 31.1883 18 31.1883C18.0175 31.1883 18.0344 31.1883 18.0519 31.1883L21.2462 35.0673C21.4532 35.3189 21.8211 35.3519 22.068 35.141C22.1375 35.0816 22.1925 35.0065 22.2286 34.9217L23.6688 31.5336L27.191 30.6765C27.5044 30.6004 27.698 30.2799 27.6233 29.9606C27.6022 29.8706 27.5609 29.7868 27.5025 29.716L24.3029 25.8305C24.3373 25.6373 24.3659 25.4423 24.3834 25.2444H34.9167C35.2388 25.2444 35.5 24.9783 35.5 24.65V0.874419C35.5 0.546093 35.2388 0.280029 34.9167 0.280029ZM14.4668 33.5659L13.2855 30.7901C13.2125 30.6184 13.0645 30.4918 12.8859 30.4483L9.99842 29.7451L12.0926 27.2017C12.1037 27.2279 12.1183 27.2517 12.1293 27.2778C12.2052 27.4561 12.2874 27.6255 12.3784 27.7937C12.4157 27.8639 12.4554 27.9328 12.4951 28.0012C12.5752 28.1371 12.6599 28.2702 12.7494 28.4006C12.8118 28.4916 12.8772 28.5789 12.9442 28.6681C13.0224 28.7691 13.1029 28.8678 13.1875 28.9653C13.2721 29.0628 13.3707 29.1703 13.4681 29.269C13.5398 29.3421 13.6139 29.4129 13.6897 29.4824C13.7528 29.5418 13.8093 29.6042 13.8752 29.6607C13.9412 29.7172 14.003 29.7552 14.066 29.8052C14.0946 29.8277 14.1191 29.8539 14.1482 29.8759C14.2007 29.9163 14.2562 29.9514 14.3098 29.99C14.3938 30.0495 14.4767 30.1136 14.5636 30.1683C14.7292 30.2765 14.9002 30.3752 15.0734 30.4655C15.1399 30.5 15.2076 30.5315 15.2752 30.5636C15.4308 30.6381 15.5873 30.7059 15.7448 30.7669C15.7903 30.7841 15.8353 30.8037 15.8808 30.8198C16.1017 30.8989 16.3269 30.9654 16.5551 31.0189L16.5615 31.0207L14.4668 33.5659ZM19.0955 29.8735C18.828 29.9311 18.5565 29.9675 18.2835 29.9823H18.2759C18.1838 29.987 18.0916 29.9936 17.9988 29.9936C17.9061 29.9936 17.8139 29.987 17.7218 29.9823H17.7142C17.4417 29.9674 17.1709 29.9312 16.9039 29.8741L16.8549 29.864C16.7511 29.8408 16.6484 29.8123 16.5469 29.7826C16.5043 29.7701 16.4612 29.7588 16.4192 29.7451C16.3462 29.7219 16.2745 29.6946 16.2027 29.6684C16.131 29.6423 16.0627 29.6167 15.9939 29.5876C15.9513 29.5692 15.9093 29.5496 15.8673 29.5282C15.7717 29.4842 15.6766 29.4396 15.5838 29.3903L15.5372 29.3641C15.2967 29.2331 15.0666 29.0832 14.8488 28.916C14.7275 28.8238 14.6155 28.7222 14.5052 28.6217C14.3749 28.5032 14.2504 28.378 14.1325 28.2467C14.0858 28.1955 14.0357 28.1468 13.9913 28.0939C13.8284 27.8986 13.6798 27.6914 13.5468 27.474C13.527 27.4419 13.5101 27.408 13.4885 27.3747C13.3645 27.1635 13.2553 26.9436 13.1618 26.7167C13.1537 26.6965 13.1443 26.6763 13.1367 26.6573C13.0334 26.3972 12.9503 26.1294 12.8883 25.856C12.8883 25.8453 12.8801 25.837 12.8772 25.8263C12.7924 25.4402 12.7498 25.0456 12.75 24.65C12.7483 21.6955 15.0973 19.2991 17.9968 19.2972C20.8963 19.2954 23.2482 21.6891 23.25 24.6435C23.2502 25.0436 23.2064 25.4426 23.1193 25.8328C23.1164 25.8429 23.1106 25.8518 23.1082 25.8619C23.0463 26.1349 22.9634 26.4026 22.8603 26.6625C22.8522 26.6833 22.8428 26.7041 22.8341 26.722C22.7409 26.9475 22.6321 27.166 22.5086 27.3758C22.4893 27.4091 22.4718 27.4442 22.4503 27.4774C22.3172 27.6946 22.1689 27.9016 22.0063 28.0968C21.9626 28.1491 21.913 28.1967 21.8669 28.2478C21.7474 28.3803 21.6214 28.5067 21.4895 28.6264C21.3787 28.7269 21.2684 28.8285 21.1477 28.92C21.0269 29.0116 20.919 29.0888 20.8012 29.1655L20.7942 29.1697C20.6886 29.238 20.5807 29.301 20.471 29.3605C20.4494 29.3724 20.4284 29.3848 20.4068 29.3961C20.3187 29.4431 20.2318 29.4853 20.1391 29.5263C20.0924 29.5477 20.0463 29.5697 19.9991 29.5893C19.9337 29.6173 19.8673 29.6416 19.8008 29.666C19.7343 29.6904 19.652 29.7219 19.5762 29.7456C19.5359 29.7587 19.4951 29.77 19.4542 29.7819C19.351 29.8116 19.2472 29.8413 19.1422 29.8639L19.0955 29.8735ZM26.0016 29.7433L23.1141 30.4465C22.9355 30.49 22.7875 30.6166 22.7145 30.7883L21.5332 33.5659L19.4385 31.0225H19.4437C19.6729 30.9691 19.8988 30.9025 20.1204 30.8228C20.1642 30.8073 20.2062 30.7889 20.2499 30.7728C20.4127 30.7098 20.5731 30.6409 20.7306 30.5642C20.7948 30.5339 20.8589 30.5048 20.9219 30.4715C21.0969 30.3787 21.2719 30.2783 21.4399 30.1683C21.521 30.116 21.5986 30.0572 21.6773 30.0007C21.7357 29.9597 21.794 29.9223 21.8523 29.8789C21.8832 29.8551 21.9107 29.8271 21.941 29.8028C21.9993 29.754 22.067 29.713 22.1265 29.6619C22.186 29.6108 22.2467 29.543 22.3085 29.4872C22.3855 29.4158 22.4613 29.3439 22.5348 29.2696C22.6309 29.1718 22.7238 29.0711 22.8137 28.9677C22.8982 28.8702 22.9787 28.7715 23.0575 28.6705C23.1246 28.5831 23.1899 28.4921 23.2523 28.403C23.3422 28.2734 23.4273 28.1403 23.5061 28.0047C23.5469 27.9358 23.5866 27.8663 23.6227 27.7955C23.7134 27.6279 23.796 27.4565 23.8707 27.2814C23.8812 27.2511 23.8963 27.2267 23.9074 27.1999L26.0016 29.7433ZM34.3333 24.0556H24.3869C24.0704 20.461 20.9539 17.8085 17.4262 18.1311C14.3372 18.4136 11.8891 20.908 11.6119 24.0556H1.66667V1.46881H34.3333V24.0556Z" fill="white"/>
<path d="M3.41732 2.65759C3.09517 2.65759 2.83398 2.92373 2.83398 3.25198V5.62954H4.00065V3.84637H5.75065V2.65759H3.41732Z" fill="white"/>
<path d="M32.5833 2.65759H30.25V3.84637H32V5.62954H33.1667V3.25198C33.1667 2.92366 32.9055 2.65759 32.5833 2.65759Z" fill="white"/>
<path d="M32 19.8949V21.6781H30.25V22.8668H32.5833C32.9055 22.8668 33.1667 22.6007 33.1667 22.2724V19.8949H32Z" fill="white"/>
<path d="M4.00065 21.6781V19.8949H2.83398V22.2724C2.83398 22.6007 3.09517 22.8668 3.41732 22.8668H5.75065V21.6781H4.00065Z" fill="white"/>
<path d="M25 6.81836H11V8.00714H25V6.81836Z" fill="white"/>
<path d="M28.5 10.3846H7.5V11.5734H28.5V10.3846Z" fill="white"/>
<path d="M17.9993 20.4894C15.7441 20.4894 13.916 22.3522 13.916 24.6501C13.9185 26.9469 15.7452 28.8082 17.9993 28.8108C20.2545 28.8108 22.0826 26.948 22.0826 24.6501C22.0826 22.3522 20.2545 20.4894 17.9993 20.4894ZM17.9993 27.6221C16.3885 27.6221 15.0826 26.2914 15.0826 24.6501C15.0845 23.0096 16.3893 21.6801 17.9993 21.6782C19.6101 21.6782 20.916 23.0088 20.916 24.6501C20.916 26.2914 19.6101 27.6221 17.9993 27.6221Z" fill="white"/>
</g>
<defs>
<clipPath id="clip0_6512_2721">
<rect width="35" height="35" fill="white" transform="translate(0.5 0.280029)"/>
</clipPath>
</defs>
</svg>
